<svg id="Layer_1" data-name="Layer 1" xmlns="http://www.w3.org/2000/svg" viewBox="0 0 256 256"><defs><style>.cls-1{fill:#fff;}.cls-2{fill:#080808;}.cls-3{fill:#0c0c0c;}.cls-4{fill:#0b0b0b;}.cls-5{fill:#0e0e0e;}.cls-6{fill:#0f0f0f;}.cls-7{fill:#1a1a1a;}</style></defs><title>favicon</title><rect class="cls-1" width="256" height="256" rx="128"/><path class="cls-2" d="M165.18,217.15c-4.9,0-9.81.28-14.68-.06-8-.58-16.83-1.94-18.69-11.1-1.81-8.89,5.32-14.51,12.3-18.22,20.9-11.1,44.43-14.5,66.69-21.66,6.95-2.23,13.5,1.28,17.39,8,4.08,7,3.56,14.13-.52,20.92-5.95,9.9-15.65,14.54-26.19,17.53A131.48,131.48,0,0,1,165.18,217.15Z"/><path class="cls-3" d="M185.61,140.46c-.23,12.14-9,19.64-22.74,19.44-19.62-.3-38.79-19-38.26-37.36.4-13.89,9.66-23.31,23-23.4C167,99,186,119.7,185.61,140.46ZM147.12,118c-.76-3.41-2.85-5.86-6.75-5.51-3.66.33-6.38,2.49-6,6.51.35,3.69,2.75,6.12,6.65,5.94S146.64,122,147.12,118Z"/><path class="cls-4" d="M200.46,42.48c23.06.16,34,17.14,24,37.18C220.39,87.9,214.13,90.45,206.8,85A102.34,102.34,0,0,1,182,58.38C175.53,48.28,182.61,42.35,200.46,42.48Z"/><path class="cls-5" d="M47.7,133.34c-.06-15.69,12.78-30.83,25.19-31.25,9.82-.33,19.25,8.64,19.13,18.2-.14,11.89-18.61,29.29-30.88,28.8C50.08,148.64,48.2,140.67,47.7,133.34Zm39.46-15c-.33-4.12-2.64-6.12-6.68-5.67-3.2.37-5.37,2.4-5.46,5.7-.11,4,2.3,6.48,6.12,6.61C85.24,125.08,87,122.2,87.16,118.31Z"/><path class="cls-6" d="M80.05,203c-17.78,3.37-31.32,4.7-44.75.37-5.12-1.65-11.19-4-10.19-10.68,1.09-7.25,7.62-11.07,13.25-15,6-4.18,7.54,2.15,10.08,4.95C56.12,191.13,66,196.28,80.05,203Z"/><path class="cls-5" d="M99.17,47.11C88.49,53.56,77.75,59.75,70.1,69.48c-6.2,7.89-9.65,3.51-12.51-2.2-5.89-11.78,4-26.38,19.17-28.17C85.18,38.11,93.4,38.65,99.17,47.11Z"/><path class="cls-7" d="M102.34,140.1c4.94,2,14.46-1.56,14,7.57-.29,6.4-7.72,9.83-14.43,9.68s-15.51-1.88-15.25-9.93S96.06,141.28,102.34,140.1Z"/></svg>