<svg id="Layer_1" data-name="Layer 1" xmlns="http://www.w3.org/2000/svg" viewBox="0 0 616.7 473.23"><defs><style>.cls-1{fill:#fcfcfc;}.cls-2{fill:#f6f6f6;}.cls-3{fill:#f7f7f7;}.cls-4{fill:#eee;}.cls-5{fill:#e5e5e5;}.cls-6{fill:#292929;}.cls-7{fill:#5d5d5d;}.cls-8{fill:#1a1a1a;}</style></defs><title>hero</title><path class="cls-1" d="M374.61,77.85c1.06-6.59,7.68-8.09,11.71-11.31,12.62-10.11,25.9-19.16,41.16-25.78C453,29.69,479.1,26.09,506,30.93c25.55,4.6,49.12,14.17,69.35,31.77A239,239,0,0,1,625.08,122c23.72,40.31,34.86,84.38,38.63,130.63.88,10.82,2.08,21.61,1.47,34.5-34.72-57.65-81.87-92.17-150.79-91.74,3.46-2.68,6.12-5.28,9.24-7.08,10.43-6,10.44-6.81,1.66-15.21-9-8.64-19.39-15.36-30-21.63-3.47-2-4.06-3.45-3.61-7.59,2.52-23.36,1.52-46.61-11.6-67-14.88-23.13-33.41-33.58-60.93-24-14.25,5-23.86,16.92-27.06,32.48-2.26,11-3.13,22.09,1.83,34.11,1.92-7.28,3.75-13.54,10.49-16.2,5.26-2.08,11.1-2,15.55.61,17.55,10.22,26.84,26,28.73,46.2.63,6.8.19,13.27-4.79,18.81a21.37,21.37,0,0,1-3.77,2.92c-1.36,1-4.37-.46-4.43,2-.07,3.18,2.88,3.38,5.35,4.06a32.51,32.51,0,0,0,19-.31c5-1.64,7.91.5,10.54,4.21,18.71,26.34,36.66,74.9,39.7,107.61-11.09-2.3-16.09-11.21-21.66-19.47-9-13.36-21.93-22.31-35.29-30.51-6.35-3.89-13.2-1.87-19.72,1.62a104.68,104.68,0,0,0-37.22,33c-4-11.57-6.59-22.57-11.68-32.73A71.87,71.87,0,0,0,357,211.13c-13.71-8.19-30.28-.45-34.23,15.62-2.09,8.48-2.86,17-1.09,25.78,3.11,15.28,5.19,30.8,9,45.89,4.5,17.82,23.61,32.58,39,30.35,1.66-.24,4,.17,4.88-.77,7.8-8.32,10.06-2,11.72,4.5,1.17,4.55,5.13,8.06,4.69,13.42-22.46,0-44.83-.05-67.2,0q-44.55.12-89.09.41c-14.95.08-24.89-9.17-33.89-19.18-10.24-11.36-9.17-24.25,2.64-38.62,2.33-2.84,3.62-6.85,7.86-8.77.4,5.85-3.45,10.14-4,15.43-.89,9.25,1.33,14.75,9,18.16,6.64,3,17.16.61,20.23-6.17,10-22,19.89-44.16,20.11-69a27.79,27.79,0,0,0-1.19-8.26c-1.7-5.52-3.71-11-10.36-12.49-7.52-1.72-12.13,3.43-15.84,8.08a48.2,48.2,0,0,0-10.71,25.76c-4.39-14.34-2.6-28.24,2.73-41.93A318.46,318.46,0,0,1,246.27,158c1.56-2.54,1.63-4.34-.81-6.44-8.12-7-11-17-15-26.35-2.2-5.1-1.14-8.61,5.3-10.33,13.27-3.56,24.29-1.07,32.62,9.72,3,3.85,3,2.67,6,0,15-13.39,31-25.07,49.94-32.84,16.18-6.63,32.13-12.68,50-10.6,2.07.35,4.27,1.63,6.19-1ZM274.52,284.32c-4.78,2.6-13.28-2.42-14.32,7.14-.76,7.06,8.6,21.69,13.34,22.13,4.91.46,15.78-14.33,15.25-21.44C288.08,282.47,279.81,286.43,274.52,284.32Z" transform="translate(-136.1 -13.39)"/><path class="cls-2" d="M421.56,301.5c19,.76,38.2,1.35,56.94-2,6.33-1.13,14.49-1.34,19.08-8.73,2.05-3.29,4.24.2,6.28,2,4.28,3.86.6,6.24-1.76,7.36-5.82,2.76-11.92,5.43-18.2,6.67-17.65,3.47-35.58,3.59-53.52,3.15-2.26-.05-5.43-1.79-6.79,1.05-1.27,2.66,1.44,4.34,3.06,6.26,10.85,12.81,21.89,25.48,25.64,42.67,1,4.77,1.25,7.1-4.78,7.1a230.61,230.61,0,0,1-32.58-2.53c-5-.71-8.3-3.21-10.16-7.17-8.68-18.59-17.39-37.19-22.29-57.26-.4-1.61-1.37-3.65-.77-4.8,1.05-2,1.85-4.82,4.58-5.29,3.16-.55,2.39,2.14,2.85,3.89.73,2.78,3,2.94,5.36,2.78C402.8,302.34,412.38,300.81,421.56,301.5Z" transform="translate(-136.1 -13.39)"/><path class="cls-3" d="M468.22,279.55c1.32-4.69-.4-8.77-2.32-13.17-2.35,2.46.29,6.65-3.54,8a4.5,4.5,0,0,1-2.2-4.15c-.06-1.35,1.34-3.59-1.43-3.8a3.93,3.93,0,0,0-2.91,1.2c-1.19,1.45-.6,2.92.41,4.5,2.09,3.24,5.42,6.82-2.16,7.94-2.44.36-1,3.52-.24,4.89,1.64,2.91,1.4,5.57.76,8.34-1.79.2-2.59-.16-2.91-1.53-1.5-6.43-4.65-6.64-8.47-1.88-3.07,3.82-7.36,5.32-11.58,7.1-10.15-.23-20.32-.21-30.39-1.72-9.22-1.84-9.33-2-5.08-10.51C403.57,270,415.67,260.06,429,250.8c14.16-9.81,24.52-4,35.16,5.2,1.85,1.61,4.34,2.47,6.4,3.87,3.55,2.39,5,15.71,2.1,18.75a3.83,3.83,0,0,1-4.6.74Z" transform="translate(-136.1 -13.39)"/><path class="cls-4" d="M340.08,294.66c-12.29-13.22-11-29.46,3-38.67,7.43-4.88,17,.61,19.18,11.12-.44,0-1,.11-1.26-.11-5.6-4.65-10.87-8.78-17.92-1.56-4.75,4.86-7.36,14.52-4.45,21.47.84,2,3.12,3.39,2.53,6C340.82,293.48,340.45,294.07,340.08,294.66Z" transform="translate(-136.1 -13.39)"/><path class="cls-5" d="M243,258c-8.07-1.22-12.55,3.22-15,10.11-2.79,7.93-2,15.3,5.25,21.76-8.34.34-9.71-4.79-10.5-10.62-1.6-11.88,3.39-24,11.28-26.12C237.75,252.11,241.89,252,243,258Z" transform="translate(-136.1 -13.39)"/><path class="cls-4" d="M511.48,300.71c-.27,7.25-.6,14.5-.82,21.75-.25,8.46-4.68,13.67-13.26,17.16,3.49-13.9,10.72-25.68,11.88-39.21Z" transform="translate(-136.1 -13.39)"/><path class="cls-6" d="M401.24,295.24c10.07,1.51,20.24,1.49,30.39,1.72-1.2,6.3-7.68.88-10.07,4.54-9.18-.69-18.76.84-27.06-4.8C396.64,295.74,399.37,297.49,401.24,295.24Z" transform="translate(-136.1 -13.39)"/><path class="cls-5" d="M349.89,274.92c-2.21,1.29-2.33,2.92-2.23,5.06.08,1.8,1.14,4.79-2.47,4.84-3,0-3.29-3.08-3.6-4.65-.37-1.89-.61-5.15,2.79-5.74C346.23,274.11,348,276.05,349.89,274.92Z" transform="translate(-136.1 -13.39)"/><path class="cls-5" d="M461.73,286.63c.91,2.2,5.21,3.37,2.09,6.78-1.25,1.36-3.32,2.18-4.2.46-1.3-2.53-2.88-6-2.05-8.27,1.08-2.92,2.65,1.15,4.31,1.19Z" transform="translate(-136.1 -13.39)"/><path class="cls-5" d="M461.88,286.79c-.81-5,2.33-6.5,6.35-7.23l-.13-.2c3.87,7.65-2.84,6.07-6.37,7.27Z" transform="translate(-136.1 -13.39)"/><path class="cls-7" d="M511.48,300.71l-2.2-.3a8.1,8.1,0,0,1,1.25-7.27A6.45,6.45,0,0,1,511.48,300.71Z" transform="translate(-136.1 -13.39)"/><path class="cls-7" d="M374.61,77.85l5.85,2.34c-1.92,2.61-4.12,1.33-6.19,1C374.38,80.06,374.5,79,374.61,77.85Z" transform="translate(-136.1 -13.39)"/><path class="cls-4" d="M341.2,292.89l.95,1.79-2.07,0C340.45,294.07,340.82,293.48,341.2,292.89Z" transform="translate(-136.1 -13.39)"/><path class="cls-8" d="M274.52,284.32c5.29,2.11,13.56-1.85,14.27,7.83.53,7.11-10.34,21.9-15.25,21.44-4.74-.44-14.1-15.07-13.34-22.13C261.24,281.9,269.74,286.92,274.52,284.32Z" transform="translate(-136.1 -13.39)"/><path class="cls-8" d="M583.06,51.83c1.52-12.52,1.7-24.37,12.4-33,8.93-7.24,19.19-7,28.64-.39C640.58,30,642.05,52.19,634.33,67.77c-3.18,6.42-7.52,12.44-15.52,13.56-5.72.8-4.9,2.7-2,6.36a243.62,243.62,0,0,1,41.61,77.39c4.24,13.22,13.87,20.27,22.51,29C711,224.59,736.35,258,746.82,300.64a154.87,154.87,0,0,1,4.52,28.86c.33,6.39-2.44,8.54-8,9.05-11.72,1.05-23.42,2.07-35.2,2.07-8.61,0-16.61,1.31-18.85,11.92-1.46,6.94-7.08,6.68-12.58,6.64q-89.52-.53-179-1c-5.18,0-9,.21-12.11,6s-10.78,6.64-16.49,7.68c-16.57,3-33.66,3.83-50.08-.06-6.45-1.53-15.95-1.05-18.63-10.83-.81-2.93-3.93-2.34-6.49-2.34q-74.81.12-149.62.15c-8,0-15.79-.41-23-4.94-4.74-3-10.22-3.88-16-3.81-15.69.18-31.38-.22-47.07-.25-7.83,0-12.26-2.74-12.85-11.51-1.24-18.63,4.59-35.17,14.23-50.44,3.36-5.33,4.62-9.67,3.57-16-8.34-51-16.15-102-24.13-153-.47-3-1.18-6-1.43-9.08-.28-3.44,1.08-5.7,4.93-6.29,4.55-.69,4.3,2.88,4.66,5.23,4.12,27.34,8,54.71,12.07,82.06,3.86,26,7.86,51.93,11.83,77.9.22,1.46-.56,3.85,2,3.64,1.57-.13,2.61-1.55,3.44-3.2,2.2-4.37.85-8.82.59-13.18q-3.69-60.78-7.69-121.54c-.38-5.65,0-9.09,7.12-8,3.7.57,4.38,2.13,4.47,5.42,1.07,40.32,2.33,80.64,3.38,121,.27,10.16,0,10.09,9.46,7.21,5.54-1.69,12.94-1.4,16.3-5,3.73-4-.84-11.16-.38-17,1.62-20.52,8.94-39.28,18.09-57.45a21.73,21.73,0,0,1,2.15-3.59c10.14-13.19,9.9-25.16-.54-39.08-14.44-19.26-8.88-39.59,2.22-58.6,5.57-9.53,13.07-17.9,24.06-21,19.56-5.54,33.15,3.54,45.38,18.86,3.26,4.09,4.85,7.38,11.72,4.58C324,77.09,335.64,73,348,73.1c9.57.09,17.6-2.28,24.46-9.42,17.1-17.81,39.12-28.27,60.85-38.86,6.1-3,13.64-2.85,20.31-4.83,12.39-3.69,25.1-5.6,37.76-3.77,25.87,3.76,51.78,7.46,73.76,24.17C570.28,44.32,575.83,48.72,583.06,51.83Zm-121.18,235c-1.66,0-3.23-4.11-4.31-1.19-.83,2.24.75,5.74,2.05,8.27.88,1.72,2.95.9,4.2-.46,3.12-3.41-1.18-4.58-2.09-6.79,3.53-1.19,10.24.39,6.36-7.28a3.81,3.81,0,0,0,4.61-.72c2.92-3,1.45-16.36-2.1-18.75-2.06-1.4-4.55-2.26-6.4-3.87-10.64-9.23-21-15-35.16-5.2-13.37,9.26-25.47,19.17-32.88,33.93-4.25,8.48-4.14,8.67,5.08,10.51-1.87,2.25-4.6.5-6.74,1.46-2.35.16-4.63,0-5.36-2.78-.46-1.75.31-4.44-2.85-3.89-2.73.47-3.53,3.28-4.58,5.29-.6,1.15.37,3.19.77,4.8,4.9,20.07,13.61,38.67,22.29,57.26,1.86,4,5.19,6.46,10.16,7.17a230.61,230.61,0,0,0,32.58,2.53c6,0,5.83-2.33,4.78-7.1-3.75-17.19-14.79-29.86-25.64-42.67-1.62-1.92-4.33-3.6-3.06-6.26,1.36-2.84,4.53-1.1,6.79-1.05,17.94.44,35.87.32,53.52-3.15,6.28-1.24,12.38-3.91,18.2-6.67,2.36-1.12,6-3.5,1.76-7.36-2-1.84-4.23-5.33-6.28-2-4.59,7.39-12.75,7.6-19.08,8.73-18.74,3.34-37.9,2.75-56.94,2,2.39-3.66,8.87,1.76,10.07-4.54,4.22-1.78,8.51-3.28,11.58-7.1,3.82-4.76,7-4.55,8.47,1.88.32,1.37,1.12,1.73,2.91,1.53.64-2.77.88-5.43-.76-8.34-.77-1.37-2.2-4.53.24-4.89,7.58-1.12,4.25-4.7,2.16-7.94-1-1.58-1.6-3.05-.41-4.5a3.93,3.93,0,0,1,2.91-1.2c2.77.21,1.37,2.45,1.43,3.8a4.5,4.5,0,0,0,2.2,4.15c3.83-1.32,1.19-5.51,3.54-8,1.92,4.4,3.64,8.48,2.35,13.2C464.21,280.29,461.07,281.79,461.88,286.79Zm47.4,13.62c-1.16,13.53-8.39,25.31-11.88,39.21,8.58-3.49,13-8.7,13.26-17.16.22-7.25.55-14.5.82-21.75a6.45,6.45,0,0,0-1-7.57A8.1,8.1,0,0,0,509.28,300.41Zm-169.2-5.75,2.07,0-.95-1.79c.59-2.59-1.69-4-2.53-6-2.91-7-.3-16.61,4.45-21.47,7.05-7.22,12.32-3.09,17.92,1.56.26.22.82.08,1.26.11-2.22-10.51-11.75-16-19.18-11.12C329.07,265.2,327.79,281.44,340.08,294.66ZM374.61,77.85c-.11,1.1-.23,2.21-.34,3.32-17.87-2.08-33.82,4-50,10.6-18.92,7.77-35,19.45-49.94,32.84-3,2.65-3,3.83-6,0C260,113.8,249,111.31,235.72,114.87c-6.44,1.72-7.5,5.23-5.3,10.33,4,9.32,6.92,19.39,15,26.35,2.44,2.1,2.37,3.9.81,6.44a318.46,318.46,0,0,0-24.94,51.34c-5.33,13.69-7.12,27.59-2.73,41.93a48.2,48.2,0,0,1,10.71-25.76c3.71-4.65,8.32-9.8,15.84-8.08,6.65,1.52,8.66,7,10.36,12.49a27.79,27.79,0,0,1,1.19,8.26c-.22,24.87-10.14,47-20.11,69-3.07,6.78-13.59,9.14-20.23,6.17-7.62-3.41-9.84-8.91-9-18.16.5-5.29,4.35-9.58,4-15.43-4.24,1.92-5.53,5.93-7.86,8.77-11.81,14.37-12.88,27.26-2.64,38.62,9,10,18.94,19.26,33.89,19.18q44.55-.23,89.09-.41c22.37-.07,44.74,0,67.2,0,.44-5.36-3.52-8.87-4.69-13.42-1.66-6.48-3.92-12.82-11.72-4.5-.89.94-3.22.53-4.88.77-15.42,2.23-34.53-12.53-39-30.35-3.82-15.09-5.9-30.61-9-45.89-1.77-8.74-1-17.3,1.09-25.78,3.95-16.07,20.52-23.81,34.23-15.62a71.87,71.87,0,0,1,27.67,30.15c5.09,10.16,7.72,21.16,11.68,32.73a104.68,104.68,0,0,1,37.22-33c6.52-3.49,13.37-5.51,19.72-1.62,13.36,8.2,26.29,17.15,35.29,30.51,5.57,8.26,10.57,17.17,21.66,19.47-3-32.71-21-81.27-39.7-107.61-2.63-3.71-5.55-5.85-10.54-4.21a32.51,32.51,0,0,1-19,.31c-2.47-.68-5.42-.88-5.35-4.06.06-2.48,3.07-1,4.43-2a21.37,21.37,0,0,0,3.77-2.92c5-5.54,5.42-12,4.79-18.81-1.89-20.17-11.18-36-28.73-46.2-4.45-2.59-10.29-2.69-15.55-.61-6.74,2.66-8.57,8.92-10.49,16.2-5-12-4.09-23.1-1.83-34.11,3.2-15.56,12.81-27.52,27.06-32.48,27.52-9.56,46.05.89,60.93,24,13.12,20.41,14.12,43.66,11.6,67-.45,4.14.14,5.55,3.61,7.59,10.65,6.27,21,13,30,21.63,8.78,8.4,8.77,9.21-1.66,15.21-3.12,1.8-5.78,4.4-9.24,7.08,68.92-.43,116.07,34.09,150.79,91.74.61-12.89-.59-23.68-1.47-34.5C659.94,206.37,648.8,162.3,625.08,122A239,239,0,0,0,575.31,62.7C555.08,45.1,531.51,35.53,506,30.93c-26.86-4.84-53-1.24-78.48,9.83-15.26,6.62-28.54,15.67-41.16,25.78C382.29,69.76,375.67,71.26,374.61,77.85ZM243,258c-1.08-6-5.22-5.87-8.95-4.87-7.89,2.11-12.88,14.24-11.28,26.12.79,5.83,2.16,11,10.5,10.62-7.22-6.46-8-13.83-5.25-21.76C230.42,261.2,234.9,256.76,243,258Zm106.92,16.94c-1.88,1.13-3.66-.81-5.51-.49-3.4.59-3.16,3.85-2.79,5.74.31,1.57.59,4.69,3.6,4.65,3.61-.05,2.55-3,2.47-4.84C347.56,277.84,347.68,276.21,349.89,274.92Z" transform="translate(-136.1 -13.39)"/><path class="cls-8" d="M160.38,391.49,167.14,424l8.13-39.8h17.78l6.5,7.26L179.4,486.61h-16l-7.13-6.51L136.1,384.23h17.77Zm-18.78-5H139l19.15,91.37h2.63Zm24.16,91.37,19.4-91.37h-2.75l-17.78,85.36-17.77-85.36h-2.75l19.27,91.37Zm14.14-91.37h-2.62l-12.65,61.21L152,386.48h-2.5l15.14,73.1Zm10.27,0h-2.63l-19,91.37H171Z" transform="translate(-136.1 -13.39)"/><path class="cls-8" d="M242.74,391.49v95.12h-16.9l-7.26-6.51V384.23H236.1Zm-19.15-5H221v91.37h2.63Zm5.25,0h-2.75v91.37h2.75Zm5,0h-2.5v91.37h2.5Z" transform="translate(-136.1 -13.39)"/><path class="cls-8" d="M265.89,480.1V384.23h28.54c9.51,0,17.27,4.38,24.41,12.51,6.63,7.51,10,14.77,10,23v38.56c0,16.27-11.76,28.28-27.53,28.28H273.15ZM320,412.89c0-15.14-10.89-26.41-25.54-26.41H268.27v91.37h26.16c14.65,0,25.54-11.26,25.54-26.41Zm-49.19-23.66h23c13.51,0,23.65,10.27,23.65,23v39.93c0,12.77-10.14,23-23.65,23h-23Zm44.18,23a20.51,20.51,0,0,0-20.53-20.4H273.28v80.73h21.15A20.51,20.51,0,0,0,315,452.19ZM276,394.37h17.78c10.64,0,18.52,7.76,18.52,18.52v38.55c0,10.89-7.88,18.65-18.52,18.65H276Zm33.67,18.52c0-9.51-6.63-15.9-15.27-15.9H278.54v70.47h15.89c8.64,0,15.27-6.38,15.27-16Zm-28.54-13.27h12.65c8,0,13.26,4.51,13.26,12.64v39.93c0,8-5.25,12.77-13.26,12.77H281.16Zm8.89,63h3.76c6.63,0,11-3.88,11-10.39V412.26c0-3.5-.5-3.88-4.13-3.88H290.05Z" transform="translate(-136.1 -13.39)"/><path class="cls-8" d="M351.13,480.1V384.23h28c9.51,0,18.52,4.88,25.28,13.27,6,7.5,9.77,14.39,9.77,21.9,0,15.52-13.52,28-28.17,28H375.29v39.17h-16.9Zm15.27-41.55h12.77c13.64,0,26.16-11.52,26.16-26a26.2,26.2,0,0,0-26.16-26H353.51v91.37h2.63V389.23h23a23.65,23.65,0,0,1,23.66,23.28c0,12.77-11.77,23.54-23.66,23.54H363.9v41.8h2.5Zm-5.13-5.26h17.9a20.85,20.85,0,0,0,21-20.78,20.6,20.6,0,0,0-21-20.65H358.64v86h2.63Zm0-2.5V394.37h17.9a18.21,18.21,0,1,1,0,36.42Zm17.9-2.38c9.14,0,15.9-6,15.9-15.9,0-8.76-6.76-15.52-15.9-15.52H364v31.42Zm-12.77-2.88V399.62h12.77c8,0,13.27,4.88,13.27,12.89s-5.26,13-13.27,13Zm8.89-2.38h3.88c6.63,0,11-4.13,11-10.64,0-3.5-.37-4.13-4.13-4.13H375.29Z" transform="translate(-136.1 -13.39)"/><path class="cls-8" d="M433.74,480.1V410.64a27.68,27.68,0,0,1,28-28c9.39,0,17.65,4.63,25.66,13.52,6.13,6.88,9.39,13.89,9.39,21.4v69.09h-16.9l-7.26-6.51V447.56H457.78v39.05h-16.9Zm54.33-69.46c0-14.27-12-25.66-26.29-25.66A25.4,25.4,0,0,0,436,410.64v67.21h2.5V410.39c0-12.27,11.64-23.16,23.41-23.16,12.26,0,23.4,11.14,23.4,23.16v67.46h2.76Zm-5.39-.25c0-10.77-9.13-20.91-20.9-20.91-11.14,0-20.65,9.39-20.65,21.41v67h2.63V433.54h36.42v44.31h2.5ZM443.76,431V410.39a18.19,18.19,0,0,1,18-18,18.54,18.54,0,0,1,18.4,18.53V431Zm33.67-20.15c0-9-6.51-16-15.65-16-8.89,0-15.39,7-15.39,16v17.52h31Zm0,25.41h-31v41.55h2.5V438.8h26v39.05h2.51Zm-28.54-10.52V410.39c0-7.64,5-12.89,12.89-12.89s13.14,4.88,13.14,12.89v15.39Zm8.89-2.38h14.89v-13c0-3.38-.5-4-4-4-6.75,0-10.88,4.51-10.88,10.89Z" transform="translate(-136.1 -13.39)"/><path class="cls-8" d="M519.11,480.1V410.64c0-16.52,12.51-28,28.28-28,9.52,0,17.53,4.26,25.16,12.89,6.39,7.26,9.64,14,9.64,22v69.09h-16.9L558,480.1V410.64c0-3.13-.25-3.88-3.75-3.88-6.89,0-11.14,4-11.14,10.76v69.09h-16.9Zm4.75-69.46c0-14,11.64-23,23.53-23s23.29,9,23.29,23v67.21h2.75V410.64c0-15.15-11.64-25.66-26-25.66s-26,10.51-26,25.66v67.21h2.5Zm5.39,0c0-10.64,7.63-17.9,18.14-17.9s18,7.26,18,17.9v67.21h2.63V410.64a20.48,20.48,0,0,0-20.66-20.53c-10.63,0-20.9,8.26-20.9,20.53v67.21h2.76Zm5,0c0-8,5.13-12.77,13.14-12.77s12.9,4.76,12.9,12.77v67.21h2.5V410.64c0-9.52-7.26-15.27-15.4-15.27s-15.64,5.75-15.64,15.27v67.21h2.5Z" transform="translate(-136.1 -13.39)"/><path class="cls-8" d="M604.85,480.1V384.23h28.53c9.52,0,17.28,4.38,24.41,12.51,6.64,7.51,10,14.77,10,23v38.56c0,16.27-11.77,28.28-27.54,28.28H612.11Zm54.07-67.21c0-15.14-10.89-26.41-25.54-26.41H607.23v91.37h26.15c14.65,0,25.54-11.26,25.54-26.41Zm-49.19-23.66h23c13.52,0,23.66,10.27,23.66,23v39.93c0,12.77-10.14,23-23.66,23h-23Zm44.18,23a20.51,20.51,0,0,0-20.53-20.4H612.23v80.73h21.15a20.51,20.51,0,0,0,20.53-20.4ZM615,394.37h17.77c10.64,0,18.52,7.76,18.52,18.52v38.55c0,10.89-7.88,18.65-18.52,18.65H615Zm33.67,18.52c0-9.51-6.64-15.9-15.28-15.9H617.49v70.47h15.89c8.64,0,15.28-6.38,15.28-16Zm-28.54-13.27h12.64c8,0,13.27,4.51,13.27,12.64v39.93c0,8-5.26,12.77-13.27,12.77H620.12Zm8.88,63h3.76c6.63,0,11-3.88,11-10.39V412.26c0-3.5-.5-3.88-4.13-3.88H629Z" transform="translate(-136.1 -13.39)"/><path class="cls-8" d="M689.71,480.1V410.64a27.68,27.68,0,0,1,28-28c9.38,0,17.65,4.63,25.66,13.52,6.13,6.88,9.38,13.89,9.38,21.4v69.09H735.9l-7.26-6.51V447.56h-14.9v39.05h-16.9ZM744,410.64c0-14.27-12-25.66-26.28-25.66A25.41,25.41,0,0,0,692,410.64v67.21h2.51V410.39c0-12.27,11.64-23.16,23.4-23.16,12.27,0,23.41,11.14,23.41,23.16v67.46H744Zm-5.38-.25c0-10.77-9.14-20.91-20.9-20.91-11.14,0-20.66,9.39-20.66,21.41v67h2.63V433.54h36.43v44.31h2.5ZM699.72,431V410.39a18.2,18.2,0,0,1,18-18,18.54,18.54,0,0,1,18.4,18.53V431Zm33.67-20.15c0-9-6.51-16-15.64-16-8.89,0-15.4,7-15.4,16v17.52h31Zm0,25.41h-31v41.55h2.5V438.8h26v39.05h2.5Zm-28.54-10.52V410.39c0-7.64,5-12.89,12.9-12.89s13.14,4.88,13.14,12.89v15.39Zm8.89-2.38h14.9v-13c0-3.38-.5-4-4-4-6.76,0-10.89,4.51-10.89,10.89Z" transform="translate(-136.1 -13.39)"/></svg>