<svg id="Layer_1" data-name="Layer 1" xmlns="http://www.w3.org/2000/svg" viewBox="0 0 362.57 56"><defs><style>.cls-1{fill:#1a1a1a;}</style></defs><title>hot-logo</title><path class="cls-1" d="M111.68,28.16l3,14.56,3.64-17.81h8l2.92,3.25-9,42.56H113l-3.19-2.91-9-42.9h8Zm-8.4-2.24H102.1l8.57,40.88h1.17Zm10.8,40.88,8.68-40.88h-1.23l-8,38.19-8-38.19H104.4L113,66.8Zm6.33-40.88h-1.17L113.58,53.3l-5.66-27.38H106.8l6.78,32.7Zm4.59,0h-1.17L115.32,66.8h1.12Z" transform="translate(-14.16 -20.7)"/><path class="cls-1" d="M148.53,28.16V70.72H141l-3.24-2.91V24.91h7.84ZM140,25.92h-1.18V66.8H140Zm2.35,0h-1.23V66.8h1.23Zm2.24,0h-1.12V66.8h1.12Z" transform="translate(-14.16 -20.7)"/><path class="cls-1" d="M158.88,67.81V24.91h12.77c4.26,0,7.73,2,10.92,5.6,3,3.36,4.48,6.61,4.48,10.3V58.06c0,7.28-5.26,12.66-12.32,12.66h-12.6Zm24.2-30.08c0-6.77-4.87-11.81-11.43-11.81H160V66.8h11.7c6.56,0,11.43-5,11.43-11.82Zm-22-10.58h10.3A10.31,10.31,0,0,1,182,37.45V55.32a10.31,10.31,0,0,1-10.59,10.3h-10.3Zm19.77,10.3a9.18,9.18,0,0,0-9.19-9.12h-9.46V64.45h9.46a9.18,9.18,0,0,0,9.19-9.13Zm-17.42-8h8a8,8,0,0,1,8.29,8.28V55a8.05,8.05,0,0,1-8.29,8.35h-8Zm15.06,8.28a6.72,6.72,0,0,0-6.83-7.11h-7.11V62.15h7.11c3.87,0,6.83-2.86,6.83-7.17ZM165.72,31.8h5.65c3.59,0,5.94,2,5.94,5.65V55.32c0,3.58-2.35,5.71-5.94,5.71h-5.65Zm4,28.17h1.68c3,0,4.93-1.74,4.93-4.65V37.45c0-1.56-.22-1.73-1.85-1.73h-4.76Z" transform="translate(-14.16 -20.7)"/><path class="cls-1" d="M197,67.81V24.91h12.54c4.26,0,8.29,2.18,11.32,5.94,2.68,3.36,4.36,6.44,4.36,9.8a12.82,12.82,0,0,1-12.6,12.54h-4.81V70.72h-7.56Zm6.83-18.6h5.71a11.87,11.87,0,0,0,11.71-11.64,11.73,11.73,0,0,0-11.71-11.65H198.08V66.8h1.18V27.15h10.3a10.59,10.59,0,0,1,10.59,10.42c0,5.71-5.27,10.52-10.59,10.52h-6.83V66.8h1.12Zm-2.29-2.35h8A9.33,9.33,0,0,0,219,37.57a9.21,9.21,0,0,0-9.41-9.24h-9.18V66.8h1.18Zm0-1.12V29.45h8a8.15,8.15,0,1,1,0,16.29Zm8-1.06a6.74,6.74,0,0,0,7.12-7.11,6.89,6.89,0,0,0-7.12-6.95h-6.77V44.68Zm-5.71-1.29V31.8h5.71c3.59,0,5.94,2.18,5.94,5.77s-2.35,5.82-5.94,5.82Zm4-1.06h1.73c3,0,4.93-1.85,4.93-4.76,0-1.57-.17-1.85-1.85-1.85h-4.81Z" transform="translate(-14.16 -20.7)"/><path class="cls-1" d="M234,67.81V36.73a12.39,12.39,0,0,1,12.54-12.55c4.2,0,7.9,2.07,11.48,6.05,2.75,3.08,4.2,6.22,4.2,9.58V70.72h-7.56l-3.24-2.91V53.25h-6.67V70.72h-7.56Zm24.3-31.08a11.66,11.66,0,0,0-11.76-11.48A11.36,11.36,0,0,0,235,36.73V66.8h1.12V36.61c0-5.48,5.21-10.36,10.47-10.36a10.86,10.86,0,0,1,10.47,10.36V66.8h1.23Zm-2.4-.12a9.3,9.3,0,1,0-18.6.23v30h1.18V47h16.3V66.8h1.12Zm-17.42,9.24V36.61a8.14,8.14,0,0,1,8.06-8.06,8.3,8.3,0,0,1,8.24,8.29v9Zm15.06-9a6.94,6.94,0,1,0-13.88,0v7.84h13.88Zm0,11.37H239.64V66.8h1.12V49.33H252.4V66.8h1.12ZM240.76,43.5V36.61a5.43,5.43,0,0,1,5.76-5.76c3.48,0,5.88,2.18,5.88,5.76V43.5Zm4-1.06h6.67V36.61c0-1.51-.23-1.79-1.8-1.79a4.59,4.59,0,0,0-4.87,4.87Z" transform="translate(-14.16 -20.7)"/><path class="cls-1" d="M272.17,67.81V36.73a12.28,12.28,0,0,1,12.66-12.55c4.25,0,7.84,1.91,11.25,5.77,2.86,3.25,4.32,6.27,4.32,9.86V70.72h-7.56l-3.25-2.91V36.73c0-1.4-.11-1.74-1.68-1.74-3.08,0-5,1.79-5,4.82V70.72h-7.56Zm2.13-31.08a10.47,10.47,0,0,1,20.94,0V66.8h1.24V36.73a11.65,11.65,0,0,0-23.3,0V66.8h1.12Zm2.41,0a8.09,8.09,0,0,1,16.18,0V66.8h1.18V36.73a9.16,9.16,0,0,0-9.24-9.19,9.26,9.26,0,0,0-9.35,9.19V66.8h1.23Zm2.24,0c0-3.59,2.29-5.72,5.88-5.72s5.77,2.13,5.77,5.72V66.8h1.12V36.73a6.95,6.95,0,0,0-13.89,0V66.8H279Z" transform="translate(-14.16 -20.7)"/><path class="cls-1" d="M310.53,67.81V24.91H323.3c4.26,0,7.73,2,10.92,5.6,3,3.36,4.48,6.61,4.48,10.3V58.06c0,7.28-5.26,12.66-12.32,12.66h-12.6Zm24.19-30.08c0-6.77-4.87-11.81-11.42-11.81H311.6V66.8h11.7c6.55,0,11.42-5,11.42-11.82Zm-22-10.58H323a10.3,10.3,0,0,1,10.58,10.3V55.32A10.3,10.3,0,0,1,323,65.62h-10.3Zm19.76,10.3a9.17,9.17,0,0,0-9.18-9.12h-9.46V64.45h9.46a9.18,9.18,0,0,0,9.18-9.13Zm-17.41-8H323a8,8,0,0,1,8.29,8.28V55A8.05,8.05,0,0,1,323,63.33h-7.95Zm15.06,8.28a6.73,6.73,0,0,0-6.83-7.11h-7.11V62.15h7.11c3.86,0,6.83-2.86,6.83-7.17ZM317.36,31.8H323c3.58,0,5.94,2,5.94,5.65V55.32C329,58.9,326.6,61,323,61h-5.66Zm4,28.17H323c3,0,4.93-1.74,4.93-4.65V37.45c0-1.56-.23-1.73-1.85-1.73h-4.76Z" transform="translate(-14.16 -20.7)"/><path class="cls-1" d="M348.5,67.81V36.73A12.39,12.39,0,0,1,361,24.18c4.2,0,7.9,2.07,11.48,6.05,2.75,3.08,4.2,6.22,4.2,9.58V70.72h-7.56l-3.24-2.91V53.25h-6.67V70.72h-7.56Zm24.3-31.08A11.66,11.66,0,0,0,361,25.25a11.36,11.36,0,0,0-11.53,11.48V66.8h1.12V36.61c0-5.48,5.21-10.36,10.47-10.36a10.86,10.86,0,0,1,10.47,10.36V66.8h1.23Zm-2.4-.12a9.3,9.3,0,1,0-18.6.23v30H353V47h16.3V66.8h1.12ZM353,45.85V36.61A8.14,8.14,0,0,1,361,28.55a8.3,8.3,0,0,1,8.24,8.29v9Zm15.06-9a6.94,6.94,0,1,0-13.88,0v7.84H368Zm0,11.37H354.16V66.8h1.12V49.33h11.64V66.8H368ZM355.28,43.5V36.61A5.43,5.43,0,0,1,361,30.85c3.48,0,5.88,2.18,5.88,5.76V43.5Zm4-1.06h6.67V36.61c0-1.51-.23-1.79-1.8-1.79a4.59,4.59,0,0,0-4.87,4.87Z" transform="translate(-14.16 -20.7)"/><path class="cls-1" d="M58.13,76.67c-1.54,0-3.08.08-4.6,0-2.53-.18-5.28-.61-5.87-3.48s1.67-4.56,3.86-5.72C58.08,64,65.46,62.9,72.44,60.66c2.18-.71,4.23.4,5.46,2.5a6.08,6.08,0,0,1-.17,6.56c-1.86,3.11-4.91,4.56-8.21,5.5A41.3,41.3,0,0,1,58.13,76.67Z" transform="translate(-14.16 -20.7)"/><path class="cls-1" d="M64.54,52.61c-.07,3.81-2.82,6.16-7.13,6.1-6.16-.1-12.17-6-12-11.72.13-4.36,3-7.32,7.22-7.34C58.69,39.61,64.66,46.1,64.54,52.61Zm-12.07-7a1.92,1.92,0,0,0-2.12-1.73,1.82,1.82,0,0,0-1.88,2,1.89,1.89,0,0,0,2.08,1.87C51.8,47.69,52.31,46.82,52.47,45.57Z" transform="translate(-14.16 -20.7)"/><path class="cls-1" d="M69.2,21.87c7.23.05,10.66,5.38,7.53,11.66-1.28,2.59-3.24,3.39-5.54,1.67a32,32,0,0,1-7.78-8.34C61.38,23.69,63.6,21.83,69.2,21.87Z" transform="translate(-14.16 -20.7)"/><path class="cls-1" d="M21.28,50.37c0-4.92,4-9.67,7.9-9.8a6,6,0,0,1,6,5.71c0,3.73-5.84,9.19-9.69,9C22,55.17,21.43,52.67,21.28,50.37Zm12.38-4.71a1.72,1.72,0,0,0-2.1-1.78,1.79,1.79,0,0,0-1.71,1.79,1.86,1.86,0,0,0,1.92,2.07C33.05,47.78,33.59,46.88,33.66,45.66Z" transform="translate(-14.16 -20.7)"/><path class="cls-1" d="M31.42,72.22c-5.57,1.06-9.82,1.48-14,.12-1.61-.52-3.51-1.27-3.2-3.35.34-2.28,2.39-3.48,4.16-4.7s2.36.67,3.16,1.55C23.92,68.5,27,70.12,31.42,72.22Z" transform="translate(-14.16 -20.7)"/><path class="cls-1" d="M37.42,23.32c-3.35,2-6.72,4-9.12,7-1.94,2.48-3,1.1-3.92-.69-1.85-3.69,1.26-8.27,6-8.83C33,20.5,35.61,20.67,37.42,23.32Z" transform="translate(-14.16 -20.7)"/><path class="cls-1" d="M38.42,52.5c1.55.62,4.53-.5,4.4,2.37-.09,2-2.42,3.08-4.52,3s-4.87-.59-4.78-3.12S36.45,52.87,38.42,52.5Z" transform="translate(-14.16 -20.7)"/></svg>