<svg id="Layer_1" data-name="Layer 1" xmlns="http://www.w3.org/2000/svg" viewBox="0 0 128 128"><defs><style>.cls-1{fill:#1a1a1a;}</style></defs><title>icons</title><path class="cls-1" d="M26.15,33.39c.17-3.75-.36-7.35.62-10.48,2.76-8.84,13.84-11.49,21.09-5.33,3,2.55,5.86,5.27,8.73,7.88,6-3.69,8.82-3.7,14.76,0,2.46-2.19,5-4.41,7.44-6.66,5.55-5.05,11.65-6,17.12-2.56s7.22,8.93,5.21,16.15a4.75,4.75,0,0,0,0,1c1.81,0,3.63,0,5.44,0,4.57.14,7.18,2.61,7.35,7.1.11,3,0,6,0,9.06,0,2.52-1.41,3.83-3.92,3.92-.93,0-1.86,0-2.79,0H20.1c-5.34,0-6.06-.72-6.08-6,0-2.2,0-4.41,0-6.62.15-4.92,2.68-7.38,7.67-7.48C23.42,33.37,25.13,33.39,26.15,33.39Zm27.31,0,.36-.77c-3.76-3.38-7.28-7.09-11.39-10-1.54-1.08-4.7-.87-6.66-.09-2.6,1-3.18,3.83-2.43,6.54a5.4,5.4,0,0,0,5.28,4.25C43.56,33.48,48.51,33.38,53.46,33.38Zm20.69-.76.38.76c4.87,0,9.78.39,14.57-.19,2-.24,4.35-2.21,5.37-4a4.61,4.61,0,0,0-2.18-6.54c-2-.81-5.15-1.05-6.7,0C81.46,25.51,77.92,29.23,74.15,32.62Z"/><path class="cls-1" d="M20.86,59.33H57.55v54.46H50.43c-7.67,0-15.34,0-23,0-4.22,0-6.78-2.52-6.8-6.74-.08-15.46,0-30.92,0-46.38A8.49,8.49,0,0,1,20.86,59.33Z"/><path class="cls-1" d="M107.42,59.45V72.11c0,11.27,0,22.55,0,33.82,0,5.53-2.33,7.83-7.86,7.85-9.63,0-19.25,0-29.12,0V59.45Z"/></svg>