<svg id="Layer_1" data-name="Layer 1" xmlns="http://www.w3.org/2000/svg" viewBox="0 0 857.77 743.33"><defs><style>.cls-1{fill:#080808;}.cls-2{fill:#0c0c0c;}.cls-3{fill:#0b0b0b;}.cls-4{fill:#0e0e0e;}.cls-5{fill:#0f0f0f;}.cls-6{fill:#1a1a1a;}</style></defs><title>logo</title><path class="cls-1" d="M656.29,872.55c-20.37,0-40.82,1.17-61.09-.27-33.48-2.37-70.08-8.07-77.84-46.18-7.54-37.05,22.15-60.44,51.2-75.87,87-46.23,185-60.4,277.73-90.19,28.93-9.3,56.17,5.33,72.38,33.27,17,29.29,14.81,58.82-2.17,87.1-24.76,41.23-65.16,60.53-109,73C758.19,867.38,707.47,872.64,656.29,872.55Z" transform="translate(-72.61 -129.67)"/><path class="cls-2" d="M741.38,553.23c-1,50.56-37.49,81.77-94.68,80.92C565,632.94,485.15,555,487.36,478.61c1.67-57.84,40.24-97.09,95.76-97.45C663.8,380.63,743.05,466.79,741.38,553.23ZM581.12,459.82c-3.2-14.19-11.87-24.4-28.11-22.93-15.24,1.37-26.56,10.38-25,27.08,1.45,15.38,11.43,25.5,27.66,24.76C572.24,488,579.1,476.38,581.12,459.82Z" transform="translate(-72.61 -129.67)"/><path class="cls-3" d="M803.2,145.23c96,.67,141.5,71.38,100,154.81-17,34.32-43.13,44.95-73.64,22.12a426.38,426.38,0,0,1-103.24-110.7C699.41,169.39,728.89,144.7,803.2,145.23Z" transform="translate(-72.61 -129.67)"/><path class="cls-4" d="M167.14,523.57c-.26-65.31,53.21-128.39,104.86-130.12,40.91-1.37,80.16,36,79.68,75.77-.6,49.54-77.49,122-128.57,119.91C177,587.26,169.21,554.09,167.14,523.57ZM331.44,461c-1.37-17.14-11-25.5-27.82-23.59-13.33,1.51-22.36,10-22.74,23.7-.45,16.54,9.59,27,25.5,27.52C323.46,489.17,330.63,477.18,331.44,461Z" transform="translate(-72.61 -129.67)"/><path class="cls-5" d="M301.81,813.57c-74,14-130.4,19.56-186.31,1.52-21.33-6.88-46.61-16.83-42.44-44.46,4.55-30.2,31.71-46.12,55.17-62.39,25.1-17.4,31.42,9,42,20.63C202.18,764.2,243.39,785.64,301.81,813.57Z" transform="translate(-72.61 -129.67)"/><path class="cls-4" d="M381.43,164.5c-44.44,26.87-89.16,52.65-121,93.17-25.82,32.83-40.2,14.61-52.1-9.17-24.52-49,16.81-109.83,79.85-117.29C323.18,127.06,357.43,129.27,381.43,164.5Z" transform="translate(-72.61 -129.67)"/><path class="cls-6" d="M394.63,551.73c20.59,8.34,60.22-6.53,58.5,31.51-1.2,26.63-32.13,40.93-60.05,40.32-28.54-.63-64.6-7.85-63.5-41.36C330.68,548.52,368.51,556.65,394.63,551.73Z" transform="translate(-72.61 -129.67)"/></svg>