<svg id="Layer_1" data-name="Layer 1" xmlns="http://www.w3.org/2000/svg" viewBox="0 0 128 128"><defs><style>.cls-1{fill:#1a1a1a;}</style></defs><title>icons</title><path class="cls-1" d="M26.51,101.48h75v-.7q0-9,0-18a6.23,6.23,0,0,1,12.41-.86,7.3,7.3,0,0,1,.09,1q0,12.27,0,24.53a6.19,6.19,0,0,1-3.55,5.9,6.52,6.52,0,0,1-3,.64h-87A6.2,6.2,0,0,1,14,107.65q0-12.54,0-25.06A6.23,6.23,0,0,1,26.4,81.8a10.56,10.56,0,0,1,.1,1.49q0,8.74,0,17.5Z"/><path class="cls-1" d="M57.75,67.46V20.15a6.23,6.23,0,0,1,12.41-.77,10.18,10.18,0,0,1,.09,1.23v47c.22-.19.34-.29.45-.4L84.37,53.51a6.11,6.11,0,0,1,6.17-1.8,6.25,6.25,0,0,1,2.77,10.54q-8.43,8.46-16.88,16.89l-7.91,7.92a6.24,6.24,0,0,1-9.07,0Q47,74.65,34.65,62.24a6.23,6.23,0,0,1,2.78-10.53,6,6,0,0,1,6.07,1.72q6.74,6.72,13.44,13.44a8.79,8.79,0,0,1,.6.74Z"/></svg>